<svg width="54" height="54" viewBox="0 0 54 54" fill="none" xmlns="http://www.w3.org/2000/svg">
<path fill-rule="evenodd" clip-rule="evenodd" d="M27 4.90909C14.7995 4.90909 4.90909 14.7995 4.90909 27C4.90909 39.2005 14.7995 49.0909 27 49.0909C39.2005 49.0909 49.0909 39.2005 49.0909 27C49.0909 14.7995 39.2005 4.90909 27 4.90909ZM0 27C0 12.0883 12.0883 0 27 0C41.9117 0 54 12.0883 54 27C54 41.9117 41.9117 54 27 54C12.0883 54 0 41.9117 0 27Z" fill="#00BBF0"/>
<path fill-rule="evenodd" clip-rule="evenodd" d="M27 9.81818C28.3556 9.81818 29.4545 10.9171 29.4545 12.2727V25.483L37.9159 29.7137C39.1284 30.3199 39.6198 31.7943 39.0136 33.0068C38.4073 34.2193 36.933 34.7108 35.7205 34.1045L25.9023 29.1954C25.0707 28.7796 24.5455 27.9297 24.5455 27V12.2727C24.5455 10.9171 25.6444 9.81818 27 9.81818Z" fill="#00BBF0"/>
</svg>
