<svg width="63" height="61" viewBox="0 0 63 61" fill="none" xmlns="http://www.w3.org/2000/svg">
<path d="M24.0154 20.2431L25.267 17.9245C24.4302 17.5 23.4252 17.5302 22.6173 18.0044C21.8092 18.4786 21.3156 19.3275 21.3156 20.2431H24.0154ZM24.0154 39.9461H21.3156C21.3156 40.8721 21.8206 41.7293 22.6433 42.1999C23.4662 42.6705 24.4843 42.6846 25.3207 42.2369L24.0154 39.9461ZM42.9137 29.8283L44.2191 32.119C45.0889 31.6534 45.6246 30.762 45.6133 29.7989C45.6021 28.8356 45.0459 27.9563 44.1653 27.5096L42.9137 29.8283ZM56.6951 30.0946C56.6951 43.8248 45.2122 54.9553 31.0473 54.9553V60.1892C48.1942 60.1892 62.0946 46.7153 62.0946 30.0946H56.6951ZM31.0473 54.9553C16.8824 54.9553 5.39953 43.8248 5.39953 30.0946H0C0 46.7153 13.9004 60.1892 31.0473 60.1892V54.9553ZM5.39953 30.0946C5.39953 16.3644 16.8824 5.23384 31.0473 5.23384V0C13.9004 0 0 13.4739 0 30.0946H5.39953ZM31.0473 5.23384C45.2122 5.23384 56.6951 16.3644 56.6951 30.0946H62.0946C62.0946 13.4739 48.1942 0 31.0473 0V5.23384ZM21.3156 20.2431V39.9461H26.7151V20.2431H21.3156ZM25.3207 42.2369L44.2191 32.119L41.6084 27.5376L22.71 37.6554L25.3207 42.2369ZM44.1653 27.5096L25.267 17.9245L22.7637 22.5618L41.6621 32.147L44.1653 27.5096Z" fill="#00BBF0"/>
</svg>
