<svg width="50" height="50" viewBox="0 0 50 50" fill="none" xmlns="http://www.w3.org/2000/svg">
<path fill-rule="evenodd" clip-rule="evenodd" d="M25 4.75C13.8162 4.75 4.75 13.8162 4.75 25C4.75 36.1838 13.8162 45.25 25 45.25C36.1838 45.25 45.25 36.1838 45.25 25C45.25 13.8162 36.1838 4.75 25 4.75ZM0.25 25C0.25 11.331 11.331 0.25 25 0.25C38.669 0.25 49.75 11.331 49.75 25C49.75 38.669 38.669 49.75 25 49.75C11.331 49.75 0.25 38.669 0.25 25Z" fill="#00BBF0"/>
<path fill-rule="evenodd" clip-rule="evenodd" d="M0.25 25C0.25 23.7574 1.25736 22.75 2.5 22.75H47.5C48.7426 22.75 49.75 23.7574 49.75 25C49.75 26.2426 48.7426 27.25 47.5 27.25H2.5C1.25736 27.25 0.25 26.2426 0.25 25Z" fill="#00BBF0"/>
<path fill-rule="evenodd" clip-rule="evenodd" d="M18.2505 25C18.4047 31.9184 20.7841 38.5791 25 44.0107C29.2159 38.5791 31.5953 31.9184 31.7495 25C31.5953 18.0816 29.2159 11.4209 25 5.98929C20.7841 11.4209 18.4047 18.0816 18.2505 25ZM25 2.5L23.3387 0.982548C17.343 7.54654 13.9357 16.0649 13.7505 24.9531C13.7498 24.9844 13.7498 25.0156 13.7505 25.0469C13.9357 33.9351 17.343 42.4535 23.3387 49.0175C23.765 49.4841 24.3679 49.75 25 49.75C25.6321 49.75 26.235 49.4841 26.6613 49.0175C32.657 42.4535 36.0643 33.9351 36.2495 25.0469C36.2502 25.0156 36.2502 24.9844 36.2495 24.9531C36.0643 16.0649 32.657 7.54654 26.6613 0.982548L25 2.5Z" fill="#00BBF0"/>
</svg>
