<svg width="44" height="43" viewBox="0 0 44 43" fill="none" xmlns="http://www.w3.org/2000/svg">
<path d="M22.1236 6.10352e-05C10.4151 6.10352e-05 0.887695 9.52478 0.887695 21.2347C0.887695 32.9446 10.4151 42.4693 22.1236 42.4693C33.8322 42.4693 43.3596 32.9446 43.3596 21.2347C43.3596 9.52478 33.8322 6.10352e-05 22.1236 6.10352e-05ZM22.1236 41.0549C11.1951 41.0549 2.30475 32.1632 2.30475 21.2347C2.30475 10.3061 11.1951 1.41447 22.1236 1.41447C33.0521 1.41447 41.9425 10.3061 41.9425 21.2347C41.9425 32.1632 33.0521 41.0549 22.1236 41.0549Z" fill="#D9FAFF"/>
<path d="M32.9155 11.0763C32.6211 11.0975 31.6957 11.4884 31.4235 11.6012H31.4198C31.1584 11.7038 29.9158 12.2211 28.0267 13.0052L21.2569 15.8266C16.3992 17.8504 11.8632 20.0694 11.8632 20.0694L11.9201 20.0476C11.9201 20.0476 11.5525 20.1121 11.2086 20.3453C10.9961 20.4791 10.4955 20.6116 10.3534 20.8173C10.2825 20.92 9.80315 21.2364 9.85359 21.624C9.93613 22.2792 9.87 22.085 10.1781 22.3019C10.4899 22.5215 11.5783 22.9759 11.5783 22.9759H11.5856L16.8537 24.5855C17.0545 25.2234 17.7113 29.0938 17.8768 30.025C18.0423 30.9561 17.8725 30.6298 18.0733 30.8785C18.1705 31.0055 18.2842 31.1117 18.4209 31.197C18.4919 31.2379 18.5677 31.2702 18.6465 31.2932L18.6006 31.2823C18.6144 31.2859 18.6254 31.2968 18.6355 31.3005C18.6722 31.3104 18.6969 31.3141 18.7437 31.3213C19.4526 31.5337 20.0175 31.1384 20.0175 31.1384L20.0496 31.113L22.8875 28.473L27.6853 32.1149L27.7861 32.1576C28.7096 32.5587 29.7132 32.6323 29.858 32.3219C30.0029 32.0115 30.2398 31.113 30.2398 31.113L30.2719 31.0313L34.0587 13.0053C34.1559 12.5769 34.1807 12.1758 34.0734 11.7865C33.9627 11.3925 33.8556 11.2787 33.8556 11.2787C33.5616 11.1019 33.2591 11.0591 32.9155 11.0763ZM32.9155 12.3808C32.9371 12.4204 33.0176 12.4758 32.9919 12.5856V12.5956L29.0395 31.3254C29.0248 31.3499 29 31.4034 28.9322 31.457C28.8606 31.5132 28.8038 31.5486 28.5057 31.4316L22.8875 27.1459L19.243 30.5998V25.3024L29.053 16.9992C29.418 16.6634 29.296 16.5926 29.296 16.5926C29.3217 16.1806 28.7448 16.4719 28.7448 16.4719L16.598 23.334L16.5943 23.3159L11.1514 21.6412V21.6376L11.1376 21.6348C11.147 21.6318 11.1562 21.6281 11.1651 21.624L11.1945 21.6094L11.2229 21.5994L21.6839 16.9164L28.4509 14.094C28.4509 14.094 32.4318 12.4117 32.5106 12.3808C32.5858 12.3518 32.8396 12.2423 32.9155 12.3808Z" fill="#D9FAFF"/>
</svg>
