<svg width="43" height="43" viewBox="0 0 43 43" fill="none" xmlns="http://www.w3.org/2000/svg">
<path d="M21.7079 6.10352e-05C9.99929 6.10352e-05 0.471924 9.52478 0.471924 21.2347C0.471924 32.9446 9.99929 42.4693 21.7079 42.4693C33.4164 42.4693 42.9438 32.9446 42.9438 21.2347C42.9438 9.52478 33.4164 6.10352e-05 21.7079 6.10352e-05ZM21.7079 41.0549C10.7793 41.0549 1.88898 32.1632 1.88898 21.2347C1.88898 10.3061 10.7793 1.41447 21.7079 1.41447C32.6364 1.41447 41.5267 10.3061 41.5267 21.2347C41.5267 32.1632 32.6364 41.0549 21.7079 41.0549Z" fill="#D9FAFF"/>
<path d="M33.3542 14.6738C33.5011 14.4019 33.6221 14.1168 33.7157 13.8223C33.759 13.6857 33.7599 13.5391 33.7182 13.402C33.6765 13.2648 33.5942 13.1436 33.4822 13.0542C33.3701 12.9648 33.2336 12.9115 33.0906 12.9014C32.9477 12.8912 32.805 12.9246 32.6814 12.9972C32.0028 13.4004 31.2682 13.7007 30.5015 13.8885C29.5709 13.0486 28.3622 12.5829 27.1085 12.5814C26.4275 12.5819 25.7535 12.7199 25.127 12.9872C24.5006 13.2545 23.9346 13.6456 23.4629 14.1369C22.9912 14.6282 22.6236 15.2097 22.3821 15.8466C22.1406 16.4834 22.0302 17.1625 22.0575 17.843C19.079 17.4681 16.3593 15.9609 14.4623 13.6342C14.3897 13.5461 14.2968 13.4768 14.1916 13.4322C14.0864 13.3876 13.972 13.3691 13.8581 13.3782C13.7442 13.3873 13.6342 13.4238 13.5374 13.4845C13.4407 13.5452 13.36 13.6284 13.3022 13.7269C12.8679 14.4724 12.6318 15.3168 12.6165 16.1795C12.6012 17.0422 12.8072 17.8944 13.2148 18.6548C13.1148 18.6717 13.0188 18.7067 12.9314 18.7581C12.8243 18.8264 12.7362 18.9206 12.6751 19.0319C12.6139 19.1432 12.5819 19.2682 12.5818 19.3951C12.5818 20.8983 13.2506 22.2783 14.3286 23.2159L14.2822 23.2622C14.2008 23.3543 14.1449 23.466 14.1198 23.5863C14.0947 23.7066 14.1014 23.8313 14.1392 23.9483C14.364 24.6495 14.7393 25.2932 15.2389 25.8342C15.7386 26.3752 16.3504 26.8005 17.0316 27.0803C15.6325 27.7628 14.0668 28.029 12.5208 27.8471C12.3619 27.8309 12.2021 27.8679 12.0665 27.9523C11.9308 28.0366 11.827 28.1636 11.7713 28.3133C11.7177 28.4641 11.7167 28.6286 11.7684 28.78C11.8201 28.9315 11.9214 29.061 12.056 29.1476C14.1578 30.4966 16.6028 31.2132 19.1002 31.2123C27.2847 31.2123 32.1768 24.5641 32.1768 18.137L32.1755 17.9198C32.9687 17.3006 33.6577 16.5584 34.2163 15.7214C34.3009 15.5949 34.3425 15.4445 34.335 15.2924C34.3274 15.1404 34.2711 14.9949 34.1744 14.8774C34.0777 14.7598 33.9457 14.6766 33.7979 14.6399C33.6502 14.6033 33.4946 14.6152 33.3542 14.6738ZM31.0432 16.9981C30.9471 17.0672 30.8698 17.1593 30.8185 17.2659C30.7671 17.3726 30.7433 17.4904 30.7492 17.6086C30.7571 17.7834 30.7611 17.9609 30.7611 18.1357C30.7611 23.8675 26.4 29.7966 19.1015 29.7966C17.7998 29.7972 16.5073 29.5787 15.2781 29.1503C16.7503 28.8682 18.1332 28.2369 19.3108 27.3095C19.4254 27.2191 19.5093 27.0955 19.5511 26.9556C19.5928 26.8157 19.5903 26.6664 19.5439 26.528C19.4975 26.3895 19.4095 26.2688 19.2919 26.1823C19.1744 26.0958 19.0329 26.0478 18.887 26.0447C18.316 26.0338 17.7555 25.8888 17.2508 25.6215C16.7461 25.3542 16.3112 24.972 15.9814 24.5058C16.3164 24.4833 16.6449 24.4277 16.964 24.3416C17.1185 24.3002 17.2544 24.2078 17.3496 24.0793C17.4447 23.9507 17.4935 23.7938 17.488 23.634C17.4824 23.4742 17.4229 23.3209 17.3191 23.1993C17.2153 23.0777 17.0733 22.9948 16.9164 22.9643C16.2714 22.8331 15.6743 22.529 15.1889 22.0846C14.7034 21.6402 14.3479 21.0722 14.1604 20.4414C14.5127 20.5301 14.8742 20.5818 15.2358 20.5937C15.547 20.5924 15.8357 20.4017 15.9324 20.1023C16.029 19.803 15.9152 19.4733 15.6516 19.2985C15.0285 18.8833 14.5487 18.2859 14.2777 17.5878C14.0068 16.8898 13.958 16.1251 14.1379 15.3983C16.4383 17.7587 19.5446 19.1643 22.8362 19.3342C23.0693 19.3356 23.2732 19.2521 23.4149 19.0813C23.5566 18.9104 23.6109 18.684 23.5606 18.4668C23.3795 17.6867 23.4605 16.8687 23.7911 16.1394C24.1217 15.41 24.6835 14.81 25.3896 14.4321C26.0956 14.0542 26.9065 13.9195 27.6967 14.0489C28.487 14.1783 29.2126 14.5646 29.7612 15.148C29.8434 15.2357 29.9466 15.301 30.0611 15.3379C30.1755 15.3747 30.2975 15.3818 30.4154 15.3585C30.634 15.3148 30.8498 15.2645 31.063 15.2062C30.9669 15.2782 30.867 15.3449 30.7637 15.4062C30.6264 15.4903 30.5218 15.6187 30.4673 15.7702C30.4127 15.9218 30.4113 16.0874 30.4635 16.2397C30.5156 16.3921 30.6181 16.5222 30.754 16.6085C30.89 16.6949 31.0513 16.7323 31.2114 16.7147L31.4524 16.6842C31.3197 16.7935 31.1832 16.8982 31.0432 16.9981Z" fill="#D9FAFF"/>
</svg>
