<svg width="43" height="43" viewBox="0 0 43 43" fill="none" xmlns="http://www.w3.org/2000/svg">
<path d="M21.2359 0C9.52736 0 0 9.52472 0 21.2346C0 32.9445 9.52736 42.4692 21.2359 42.4692C32.9445 42.4692 42.4719 32.9445 42.4719 21.2346C42.4719 9.52472 32.9445 0 21.2359 0ZM21.2359 41.0548C10.3074 41.0548 1.41705 32.1631 1.41705 21.2346C1.41705 10.3061 10.3074 1.4144 21.2359 1.4144C32.1645 1.4144 41.0548 10.3061 41.0548 21.2346C41.0548 32.1631 32.1645 41.0548 21.2359 41.0548Z" fill="#D9FAFF"/>
<path d="M33.4034 21.1586C33.4034 21.0988 33.4034 21.0309 33.4007 20.9521C33.3979 20.7322 33.3925 20.485 33.3871 20.2216C33.3654 19.4638 33.3273 18.7088 33.2676 17.9972C33.1861 17.0167 33.0666 16.1992 32.9036 15.5854C32.7317 14.9449 32.3946 14.3607 31.9261 13.8912C31.4576 13.4218 30.8741 13.0835 30.2339 12.9102C29.4653 12.7038 27.9606 12.5762 25.8422 12.4974C24.8346 12.4594 23.7563 12.4349 22.6781 12.4213C22.3006 12.4159 21.9502 12.4132 21.6352 12.4105H20.8367C20.5216 12.4132 20.1713 12.4159 19.7938 12.4213C18.7155 12.4349 17.6373 12.4594 16.6297 12.4974C14.5112 12.5789 13.0039 12.7065 12.238 12.9102C11.5976 13.0831 11.0138 13.4212 10.5453 13.8907C10.0767 14.3602 9.73975 14.9447 9.56821 15.5854C9.40254 16.1992 9.28575 17.0167 9.20427 17.9972C9.14452 18.7088 9.1065 19.4638 9.08477 20.2216C9.07662 20.485 9.07391 20.7322 9.07119 20.9521C9.07119 21.0309 9.06848 21.0988 9.06848 21.1586V21.3106C9.06848 21.3704 9.06848 21.4383 9.07119 21.5171C9.07391 21.7371 9.07934 21.9842 9.08477 22.2477C9.1065 23.0054 9.14452 23.7604 9.20427 24.472C9.28575 25.4525 9.40525 26.27 9.56821 26.8838C9.91585 28.1847 10.937 29.2113 12.238 29.559C13.0039 29.7654 14.5112 29.8931 16.6297 29.9718C17.6373 30.0098 18.7155 30.0343 19.7938 30.0479C20.1713 30.0533 20.5216 30.056 20.8367 30.0587H21.6352C21.9502 30.056 22.3006 30.0533 22.6781 30.0479C23.7563 30.0343 24.8346 30.0098 25.8422 29.9718C27.9606 29.8903 29.468 29.7627 30.2339 29.559C31.5348 29.2113 32.556 28.1874 32.9036 26.8838C33.0693 26.27 33.1861 25.4525 33.2676 24.472C33.3273 23.7604 33.3654 23.0054 33.3871 22.2477C33.3952 21.9842 33.3979 21.7371 33.4007 21.5171C33.4007 21.4383 33.4034 21.3704 33.4034 21.3106V21.1586ZM31.9261 21.2998C31.9261 21.3568 31.9261 21.4193 31.9234 21.4926C31.9207 21.7045 31.9152 21.938 31.9098 22.1906C31.8908 22.9131 31.8528 23.6355 31.7957 24.3063C31.7224 25.1809 31.6192 25.8979 31.4915 26.3786C31.3232 27.006 30.9145 28.0545 29.6988 28.3787C29.1285 28.5308 27.6917 28.653 25.739 28.7263C24.7504 28.7643 23.6857 28.7888 22.6238 28.8024C22.2517 28.8078 21.9068 28.8105 21.5972 28.8105H20.8204L19.7938 28.8024C18.7318 28.7888 17.6699 28.7643 16.6786 28.7263C14.7258 28.6503 13.2863 28.5308 12.7187 28.3787C11.4158 28.0296 11.1482 27.006 10.9798 26.3786C10.8522 25.8979 10.749 25.1809 10.6756 24.3063C10.6186 23.6355 10.5833 22.9131 10.5616 22.1906C10.5534 21.938 10.5507 21.7017 10.548 21.4926C10.548 21.4193 10.5453 21.3541 10.5453 21.2998V21.1694C10.5453 21.1124 10.5453 21.0499 10.548 20.9766C10.5507 20.7647 10.5561 20.5312 10.5616 20.2786C10.5806 19.5561 10.6186 18.8337 10.6756 18.1629C10.749 17.2883 10.8522 16.5713 10.9798 16.0906C11.1482 15.4632 11.7725 14.4907 12.7187 14.2384C13.2891 14.0863 14.7258 13.964 16.6786 13.8907C17.6672 13.8527 18.7318 13.8282 19.7938 13.8147C20.1658 13.8092 20.5108 13.8065 20.8204 13.8065H21.5972L22.6238 13.8147C23.6857 13.8282 24.7477 13.8527 25.739 13.8907C27.6917 13.9668 29.1312 14.0863 29.6988 14.2384C30.3235 14.4067 31.1745 14.8967 31.4915 16.0906C31.6192 16.5713 31.7224 17.2883 31.7957 18.1629C31.8528 18.8337 31.8881 19.5561 31.9098 20.2786C31.9179 20.5312 31.9207 20.7675 31.9234 20.9766C31.9234 21.0499 31.9261 21.1151 31.9261 21.1694V21.2998ZM18.8187 24.3063L24.6593 21.1694L18.8187 18.1629V24.3063Z" fill="#D9FAFF"/>
</svg>
