<svg width="44" height="43" viewBox="0 0 44 43" fill="none" xmlns="http://www.w3.org/2000/svg">
<path d="M22.1798 6.10352e-05C10.4712 6.10352e-05 0.943848 9.52478 0.943848 21.2347C0.943848 32.9446 10.4712 42.4693 22.1798 42.4693C33.8883 42.4693 43.4157 32.9446 43.4157 21.2347C43.4157 9.52478 33.8883 6.10352e-05 22.1798 6.10352e-05ZM22.1798 41.0549C11.2513 41.0549 2.3609 32.1632 2.3609 21.2347C2.3609 10.3061 11.2513 1.41447 22.1798 1.41447C33.1083 1.41447 41.9987 10.3061 41.9987 21.2347C41.9987 32.1632 33.1083 41.0549 22.1798 41.0549Z" fill="#D9FAFF"/>
<path d="M26.815 9.31553H23.2816C18.7815 9.2705 18.2067 12.0556 18.2067 15.0698V17.2616H16.2202C16.1304 17.2496 16.0391 17.2585 15.9533 17.2875C15.8675 17.3166 15.7895 17.365 15.7255 17.429C15.6614 17.4931 15.613 17.5711 15.5839 17.6569C15.5549 17.7427 15.546 17.834 15.558 17.9238V21.8968C15.546 21.9866 15.5549 22.078 15.5839 22.1638C15.613 22.2496 15.6614 22.3275 15.7255 22.3916C15.7895 22.4556 15.8675 22.5041 15.9533 22.5331C16.0391 22.5621 16.1304 22.571 16.2202 22.559H18.2067V32.4916C18.1957 32.5816 18.2054 32.6729 18.235 32.7585C18.2646 32.8441 18.3135 32.9219 18.3777 32.9858C18.442 33.0497 18.52 33.098 18.6058 33.1271C18.6917 33.1563 18.783 33.1654 18.8729 33.1538H22.9188C23.3094 33.1988 23.626 32.8823 23.5015 32.4916L23.5041 22.559H26.815C26.9048 22.571 26.9961 22.5621 27.0819 22.5331C27.1677 22.5041 27.2457 22.4556 27.3097 22.3916C27.3738 22.3275 27.4222 22.2496 27.4513 22.1638C27.4803 22.078 27.4892 21.9866 27.4772 21.8968V17.9238C27.4892 17.834 27.4803 17.7427 27.4513 17.6569C27.4222 17.5711 27.3738 17.4931 27.3097 17.429C27.2457 17.365 27.1677 17.3166 27.0819 17.2875C26.9961 17.2585 26.9048 17.2496 26.815 17.2616H23.5002L23.5041 15.2751C23.6326 14.4288 23.6326 14.5666 24.4179 14.6129H26.7872C26.9713 14.5719 27.1673 14.5944 27.305 14.4606C27.4427 14.3269 27.5222 14.1441 27.4758 13.9507V9.9777C27.4881 9.88799 27.4794 9.79666 27.4505 9.71084C27.4217 9.62502 27.3734 9.54703 27.3094 9.48294C27.2455 9.41886 27.1676 9.3704 27.0818 9.34136C26.996 9.31233 26.9047 9.30348 26.815 9.31553ZM26.1065 13.2144L24.4457 13.1508C22.389 13.1508 22.2169 14.2673 22.2169 15.4102L22.2116 17.9211C22.2114 18.0141 22.2296 18.1062 22.265 18.1922C22.3005 18.2781 22.3525 18.3563 22.4182 18.4221C22.4839 18.4879 22.5619 18.5401 22.6478 18.5757C22.7337 18.6113 22.8258 18.6297 22.9188 18.6297H26.1528V21.1883H22.9214C22.7337 21.1883 22.5537 21.2628 22.4209 21.3954C22.288 21.528 22.2132 21.7078 22.2129 21.8955L22.2116 31.8295H19.5311V21.8968C19.5311 21.5062 19.2649 21.1896 18.8729 21.1896H16.8824V18.631H18.8729C18.9658 18.6311 19.0578 18.613 19.1437 18.5775C19.2296 18.5421 19.3077 18.49 19.3735 18.4244C19.5059 18.2906 19.5298 18.1105 19.5298 17.9225V15.0685C19.5298 12.0993 20.1297 10.6849 23.2803 10.6849H26.1051L26.1065 13.2144Z" fill="#D9FAFF"/>
</svg>
