<svg width="43" height="43" viewBox="0 0 43 43" fill="none" xmlns="http://www.w3.org/2000/svg">
<path d="M21.6517 6.10352e-05C9.94314 6.10352e-05 0.415771 9.52478 0.415771 21.2347C0.415771 32.9446 9.94314 42.4693 21.6517 42.4693C33.3603 42.4693 42.8876 32.9446 42.8876 21.2347C42.8876 9.52478 33.3603 6.10352e-05 21.6517 6.10352e-05ZM21.6517 41.0549C10.7232 41.0549 1.83282 32.1632 1.83282 21.2347C1.83282 10.3061 10.7232 1.41447 21.6517 1.41447C32.5802 1.41447 41.4706 10.3061 41.4706 21.2347C41.4706 32.1632 32.5802 41.0549 21.6517 41.0549Z" fill="#D9FAFF"/>
<path d="M8.36186 15.6121C8.36186 14.7462 8.85425 14.2793 9.83902 14.2113L13.6338 14.2368C13.8885 14.2368 14.0583 14.3641 14.1432 14.6188C14.5337 15.8922 14.9709 16.9916 15.4548 17.917C15.9387 18.8423 16.5711 19.9077 17.3522 21.1132C17.4201 21.266 17.5304 21.3424 17.6832 21.3424C17.8021 21.3424 17.8955 21.283 17.9634 21.1642L18.0398 20.884L18.0653 16.478C18.0653 16.1724 17.9931 15.9686 17.8488 15.8668C17.7045 15.7649 17.437 15.6885 17.0465 15.6376C16.7409 15.5866 16.5881 15.3999 16.5881 15.0773C16.5881 15.0093 16.5966 14.9584 16.6136 14.9245C16.9701 13.8208 17.9889 13.269 19.6698 13.269L21.096 13.2435C21.7412 13.2435 22.276 13.4048 22.7005 13.7274C23.125 14.05 23.3372 14.5594 23.3372 15.2555V21.0368C23.456 21.1217 23.5664 21.1642 23.6683 21.1642C23.923 21.1642 24.1437 21.0114 24.3305 20.7057C26.1981 18.091 27.2084 16.3422 27.3612 15.4593C27.3612 15.4423 27.3782 15.3999 27.4121 15.3319C27.531 15.0773 27.7262 14.8565 27.9979 14.6698C28.2695 14.483 28.5072 14.3557 28.711 14.2877C28.7789 14.2538 28.8553 14.2368 28.9402 14.2368H32.8878L33.1425 14.2623C33.482 14.2623 33.7452 14.4236 33.932 14.7462C33.9999 14.848 34.0466 14.9584 34.0721 15.0773C34.0975 15.1961 34.1145 15.315 34.123 15.4338C34.1315 15.5527 34.1357 15.6206 34.1357 15.6376V15.8158C34.0169 16.512 33.7155 17.2548 33.2316 18.0443C32.7477 18.8338 32.1322 19.687 31.3852 20.6039C30.6381 21.5207 30.1712 22.1235 29.9844 22.4121C29.8316 22.6159 29.7552 22.8026 29.7552 22.9724C29.7552 23.1082 29.8231 23.2611 29.9589 23.4308L33.6773 28.117C33.881 28.3887 33.9829 28.6858 33.9829 29.0084C33.9829 29.3989 33.8301 29.7215 33.5245 29.9762C33.2189 30.2309 32.8538 30.3752 32.4294 30.4091L31.9964 30.4346H28.1252C28.1082 30.4346 28.0743 30.4389 28.0233 30.4473C27.9724 30.4558 27.9385 30.4601 27.9215 30.4601C27.5479 30.4601 27.1999 30.2988 26.8773 29.9762C26.7584 29.8404 25.9604 28.8386 24.4833 26.9709C24.3984 26.8521 24.2795 26.7417 24.1267 26.6398C24.0588 26.9115 23.9697 27.302 23.8593 27.8114C23.7489 28.3207 23.6683 28.6858 23.6173 28.9065L23.5409 29.3395C23.3711 29.9337 23.0146 30.2903 22.4713 30.4091L22.1147 30.4346H19.6188C18.2096 30.4346 16.8046 29.7894 15.4038 28.499C14.0031 27.2086 12.7424 25.5405 11.6218 23.4945C10.5012 21.4486 9.457 19.0673 8.4892 16.3507C8.40431 16.1299 8.36186 15.8838 8.36186 15.6121ZM23.6683 22.2084C23.3117 22.2084 22.9891 22.1107 22.7005 21.9155C22.4118 21.7202 22.2675 21.4528 22.2675 21.1132V15.2555C22.2675 14.916 22.1826 14.674 22.0128 14.5297C21.8431 14.3854 21.5459 14.3132 21.1215 14.3132L19.6698 14.3642C18.9397 14.3642 18.3879 14.4915 18.0143 14.7462C18.7614 15.1027 19.1349 15.68 19.1349 16.478V20.9604C19.101 21.3849 18.9312 21.7372 18.6256 22.0174C18.3199 22.2975 17.9804 22.4376 17.6068 22.4376C17.0975 22.4376 16.707 22.1914 16.4353 21.699C15.1109 19.6955 14.1262 17.7939 13.481 15.9941L13.2518 15.3319L9.86449 15.3065C9.64376 15.3065 9.52067 15.3192 9.4952 15.3447C9.46973 15.3701 9.457 15.4423 9.457 15.5612C9.457 15.714 9.47398 15.8753 9.50793 16.0451L10.0428 17.4713C11.469 21.1557 13.0183 24.0591 14.6907 26.1814C16.3631 28.3038 18.0058 29.3649 19.6188 29.3649H22.1656C22.2675 29.3649 22.3439 29.3352 22.3949 29.2758C22.4458 29.2164 22.4882 29.1018 22.5222 28.932L22.5731 28.6773L23.057 26.4361C23.1929 26.1305 23.3117 25.9267 23.4136 25.8249C23.6004 25.6381 23.8211 25.5447 24.0758 25.5447C24.4833 25.5447 24.8992 25.7909 25.3237 26.2833L27.4885 29.0339C27.6243 29.2546 27.7687 29.3649 27.9215 29.3649H32.1237C32.6331 29.3649 32.8878 29.2376 32.8878 28.9829C32.8878 28.898 32.8623 28.8131 32.8114 28.7282L29.1185 24.1185C28.8298 23.7619 28.6855 23.3799 28.6855 22.9724C28.6855 22.5649 28.8214 22.1744 29.093 21.8009C29.3137 21.4613 29.7425 20.8968 30.3792 20.1072C31.0159 19.3177 31.5719 18.5791 32.0473 17.8915C32.5227 17.2039 32.8368 16.5799 32.9897 16.0196L33.0661 15.6885C33.0491 15.6545 33.0406 15.5994 33.0406 15.523C33.0406 15.4466 33.0321 15.3829 33.0151 15.3319H29.0166C28.7619 15.4338 28.5582 15.5866 28.4054 15.7904L28.2526 16.2743C27.8281 17.4458 26.716 19.2541 24.9162 21.699C24.5597 22.0386 24.1437 22.2084 23.6683 22.2084Z" fill="#D9FAFF"/>
</svg>
