<svg width="1440" height="3812" viewBox="0 0 1440 3812" fill="none" xmlns="http://www.w3.org/2000/svg">
<path d="M343.117 3701.01L343.117 3701.01L322.293 3804.53C322.293 3804.53 322.292 3804.53 322.292 3804.53C321.518 3808.13 320.152 3810.22 318.414 3811.06C316.693 3811.89 314.413 3811.58 311.573 3809.9L279.867 3785.28L279.516 3785L279.204 3785.32L263.894 3800.84L263.894 3800.84L263.887 3800.85C263.031 3801.75 262.298 3802.52 261.389 3803.08C260.606 3803.56 259.676 3803.89 258.408 3803.96L260.638 3770.64L319.304 3714.75C319.305 3714.75 319.305 3714.75 319.305 3714.75C319.979 3714.12 320.379 3713.47 320.4 3712.85C320.424 3712.15 319.982 3711.67 319.392 3711.45C318.824 3711.24 318.085 3711.24 317.294 3711.43C316.495 3711.62 315.605 3712.01 314.706 3712.64L242.211 3760.76L211.142 3750.51L211.142 3750.51C209.485 3749.97 208.278 3749.27 207.513 3748.51C206.755 3747.76 206.443 3746.96 206.509 3746.17C206.576 3745.36 207.042 3744.46 208.042 3743.53C209.041 3742.6 210.54 3741.68 212.592 3740.83C212.592 3740.83 212.593 3740.83 212.593 3740.83L335.011 3691.11C335.012 3691.11 335.012 3691.11 335.013 3691.11C337.721 3690.04 340.144 3690.4 341.678 3691.97C343.23 3693.55 344.025 3696.52 343.117 3701.01Z" stroke="#00BBF0"/>
<path d="M1053.99 3144.06L1053.99 3144.06L1080.39 3266.77C1080.39 3266.77 1080.39 3266.77 1080.39 3266.77C1081.37 3271.04 1083.11 3273.56 1085.37 3274.57C1087.63 3275.59 1090.59 3275.19 1094.21 3273.2L1134.41 3244L1134.75 3243.75L1135.05 3244.04L1154.47 3262.44L1154.47 3262.45C1155.56 3263.51 1156.5 3264.44 1157.67 3265.11C1158.71 3265.71 1159.96 3266.11 1161.67 3266.18L1158.83 3226.55L1084.42 3160.28C1084.42 3160.28 1084.42 3160.28 1084.42 3160.28C1083.57 3159.54 1083.08 3158.79 1083.06 3158.08C1083.03 3157.29 1083.57 3156.76 1084.26 3156.51C1084.94 3156.27 1085.84 3156.27 1086.82 3156.49C1087.82 3156.71 1088.93 3157.17 1090.06 3157.91C1090.06 3157.91 1090.06 3157.91 1090.06 3157.91L1182.04 3214.99L1221.51 3202.81L1221.51 3202.81C1223.63 3202.16 1225.18 3201.33 1226.17 3200.41C1227.15 3199.5 1227.56 3198.54 1227.47 3197.58C1227.38 3196.6 1226.78 3195.51 1225.5 3194.4C1224.21 3193.28 1222.3 3192.18 1219.68 3191.17C1219.68 3191.17 1219.68 3191.17 1219.68 3191.17L1064.46 3132.24C1064.46 3132.24 1064.46 3132.24 1064.46 3132.24C1060.98 3130.95 1057.83 3131.37 1055.84 3133.28C1053.84 3135.19 1052.83 3138.74 1053.99 3144.06Z" stroke="#00BBF0"/>
<path d="M506.026 2734.56L506.025 2734.56L480.373 2861.84C480.373 2861.84 480.372 2861.84 480.372 2861.84C479.416 2866.28 477.721 2868.89 475.531 2869.94C473.358 2870.99 470.503 2870.59 466.988 2868.52L427.924 2838.23L427.574 2837.96L427.262 2838.28L408.401 2857.36L408.394 2857.37C407.342 2858.48 406.428 2859.43 405.294 2860.13C404.284 2860.74 403.083 2861.16 401.437 2861.23L404.195 2820.09L476.498 2751.35C476.498 2751.35 476.499 2751.35 476.5 2751.35C477.321 2750.58 477.787 2749.81 477.812 2749.09C477.839 2748.3 477.337 2747.74 476.644 2747.48C475.974 2747.23 475.09 2747.23 474.129 2747.46C473.16 2747.69 472.075 2748.17 470.978 2748.94C470.977 2748.94 470.975 2748.94 470.973 2748.94L381.625 2808.13L343.298 2795.51L343.298 2795.51C341.246 2794.84 339.741 2793.97 338.782 2793.02C337.829 2792.08 337.426 2791.07 337.511 2790.05C337.597 2789.02 338.192 2787.89 339.437 2786.73C340.68 2785.58 342.54 2784.43 345.076 2783.39C345.077 2783.39 345.077 2783.39 345.078 2783.39L495.883 2722.26C495.884 2722.26 495.885 2722.26 495.886 2722.26C499.251 2720.94 502.29 2721.37 504.223 2723.34C506.173 2725.32 507.148 2729.02 506.026 2734.56Z" stroke="#00BBF0"/>
<path d="M194.167 2059L194.166 2059L175.908 2143.85C175.908 2143.85 175.908 2143.85 175.907 2143.86C175.233 2146.78 174.049 2148.47 172.551 2149.14C171.057 2149.81 169.071 2149.56 166.589 2148.2L138.792 2128.01L138.456 2127.77L138.155 2128.06L124.73 2140.78L124.73 2140.78L124.723 2140.79C123.972 2141.53 123.335 2142.15 122.546 2142.6C121.881 2142.98 121.092 2143.25 120.021 2143.31L121.966 2116.15L173.376 2070.37C173.377 2070.37 173.377 2070.37 173.377 2070.37C173.969 2069.84 174.349 2069.29 174.369 2068.73C174.392 2068.09 173.956 2067.68 173.435 2067.5C172.928 2067.32 172.274 2067.32 171.577 2067.47C170.872 2067.63 170.086 2067.96 169.293 2068.48L105.745 2107.91L78.5188 2099.51L78.5185 2099.51C77.0676 2099.07 76.0185 2098.5 75.3578 2097.88C74.7043 2097.28 74.4534 2096.66 74.5071 2096.05C74.5624 2095.43 74.9494 2094.71 75.8202 2093.95C76.6877 2093.2 77.9961 2092.45 79.7927 2091.75C79.7931 2091.75 79.7934 2091.75 79.7938 2091.75L187.13 2051C187.131 2051 187.132 2051 187.132 2051C189.501 2050.13 191.608 2050.42 192.932 2051.69C194.261 2052.95 194.958 2055.35 194.167 2059Z" stroke="#00BBF0"/>
<path d="M1066.83 1496L1066.83 1496L1085.09 1580.85C1085.09 1580.85 1085.09 1580.85 1085.09 1580.86C1085.77 1583.78 1086.95 1585.47 1088.45 1586.14C1089.94 1586.81 1091.93 1586.56 1094.41 1585.2L1122.21 1565.01L1122.54 1564.77L1122.85 1565.06L1136.27 1577.78L1136.27 1577.78L1136.28 1577.79C1137.03 1578.53 1137.67 1579.15 1138.45 1579.6C1139.12 1579.98 1139.91 1580.25 1140.98 1580.31L1139.03 1553.15L1087.62 1507.37C1087.62 1507.37 1087.62 1507.37 1087.62 1507.37C1087.03 1506.84 1086.65 1506.29 1086.63 1505.73C1086.61 1505.09 1087.04 1504.68 1087.57 1504.5C1088.07 1504.32 1088.73 1504.32 1089.42 1504.47C1090.13 1504.63 1090.91 1504.96 1091.71 1505.48L1155.26 1544.91L1182.48 1536.51L1182.48 1536.51C1183.93 1536.07 1184.98 1535.5 1185.64 1534.88C1186.3 1534.28 1186.55 1533.66 1186.49 1533.05C1186.44 1532.43 1186.05 1531.71 1185.18 1530.95C1184.31 1530.2 1183 1529.45 1181.21 1528.75C1181.21 1528.75 1181.21 1528.75 1181.21 1528.75L1073.87 1488C1073.87 1488 1073.87 1488 1073.87 1488C1071.5 1487.13 1069.39 1487.42 1068.07 1488.69C1066.74 1489.95 1066.04 1492.35 1066.83 1496Z" stroke="#00BBF0"/>
<path d="M112.888 1297.94L112.888 1297.94L87.1053 1419.53C87.105 1419.53 87.1048 1419.54 87.1045 1419.54C86.1456 1423.76 84.4482 1426.26 82.2455 1427.26C80.051 1428.26 77.1707 1427.87 73.6371 1425.9L34.3752 1396.97L34.0359 1396.72L33.732 1397.01L14.775 1415.24L14.7681 1415.25C13.711 1416.3 12.7927 1417.22 11.6522 1417.88C10.6353 1418.47 9.42355 1418.87 7.76344 1418.94L10.5333 1379.68L83.1959 1314.02C83.1964 1314.02 83.1969 1314.02 83.1974 1314.02C84.0207 1313.28 84.4998 1312.54 84.525 1311.83C84.5531 1311.05 84.0302 1310.52 83.3458 1310.28C82.6779 1310.04 81.7947 1310.03 80.8321 1310.25C79.8617 1310.47 78.7733 1310.93 77.6711 1311.66C77.6692 1311.66 77.6673 1311.66 77.6654 1311.67L-12.1451 1368.22L-50.6778 1356.16L-50.6781 1356.16C-52.7433 1355.51 -54.2562 1354.68 -55.2201 1353.78C-56.1768 1352.88 -56.5726 1351.92 -56.4891 1350.97C-56.4041 1350 -55.8142 1348.92 -54.5622 1347.82C-53.313 1346.72 -51.442 1345.62 -48.8918 1344.63C-48.8913 1344.63 -48.8909 1344.63 -48.8904 1344.63L102.682 1286.23C102.683 1286.23 102.683 1286.23 102.684 1286.23C106.075 1284.96 109.14 1285.37 111.084 1287.26C113.036 1289.15 114.014 1292.67 112.888 1297.94Z" stroke="#00BBF0"/>
<path d="M255.195 742.533L255.195 742.533L242.078 804.394C242.078 804.395 242.078 804.396 242.077 804.397C241.596 806.517 240.761 807.692 239.743 808.156C238.733 808.617 237.361 808.461 235.599 807.479L215.636 792.768L215.296 792.518L214.992 792.81L205.347 802.087L205.347 802.087L205.34 802.093C204.799 802.635 204.353 803.077 203.805 803.395C203.381 803.641 202.882 803.821 202.215 803.883L203.598 784.286L240.492 750.947C240.493 750.947 240.493 750.947 240.493 750.946C240.928 750.559 241.234 750.121 241.25 749.66C241.27 749.123 240.903 748.776 240.487 748.628C240.089 748.486 239.589 748.49 239.072 748.608C238.547 748.727 237.967 748.971 237.384 749.359L191.786 778.07L172.29 771.968L172.29 771.968C171.26 771.646 170.528 771.241 170.074 770.814C169.627 770.393 169.47 769.977 169.505 769.585C169.54 769.177 169.793 768.683 170.403 768.145C171.01 767.61 171.933 767.066 173.214 766.565C173.215 766.565 173.215 766.565 173.215 766.565L250.329 736.856C250.33 736.856 250.331 736.856 250.331 736.856C251.999 736.231 253.447 736.453 254.347 737.325C255.254 738.204 255.759 739.891 255.195 742.533Z" stroke="#00BBF0"/>
<path d="M1136.98 678.94L1136.98 678.941L1162.84 800.533C1162.84 800.534 1162.84 800.535 1162.84 800.536C1163.8 804.764 1165.5 807.255 1167.71 808.261C1169.91 809.263 1172.8 808.873 1176.35 806.898L1215.73 777.966L1216.07 777.717L1216.37 778.008L1235.38 796.24L1235.39 796.247C1236.45 797.304 1237.37 798.218 1238.52 798.881C1239.54 799.472 1240.75 799.872 1242.42 799.942L1239.64 760.678L1166.76 695.019C1166.76 695.019 1166.76 695.018 1166.76 695.018C1165.93 694.284 1165.45 693.538 1165.43 692.831C1165.4 692.048 1165.93 691.519 1166.61 691.275C1167.28 691.038 1168.17 691.032 1169.13 691.251C1170.1 691.471 1171.19 691.928 1172.3 692.661C1172.3 692.663 1172.3 692.664 1172.31 692.665L1262.39 749.216L1301.03 737.155L1301.04 737.155C1303.11 736.51 1304.62 735.684 1305.59 734.777C1306.55 733.877 1306.95 732.921 1306.86 731.969C1306.78 731.001 1306.19 729.924 1304.93 728.82C1303.68 727.718 1301.8 726.624 1299.24 725.626C1299.24 725.626 1299.24 725.626 1299.24 725.625L1147.22 667.231C1147.22 667.231 1147.22 667.231 1147.21 667.231C1143.81 665.959 1140.74 666.374 1138.79 668.257C1136.83 670.148 1135.85 673.667 1136.98 678.94Z" stroke="#00BBF0"/>
<g filter="url(#filter0_f)">
<path d="M-2.12354 515.574H1437.77V841.936L717.823 925.5L-2.12354 841.936V515.574Z" fill="url(#paint0_linear)"/>
</g>
<path d="M0 0H1439.89V662.43L719.946 745.5L0 662.43V0Z" fill="url(#paint1_linear)"/>
<path d="M1455 212.849L1374.09 418.944C1368.16 433.45 1358.62 435.714 1347.14 426.5L1286.57 364.096L1247.93 390.574C1243.62 393.647 1240.03 396.21 1232.92 395.022L1249.6 325.55L1396.81 231.313C1403.2 227.288 1396.88 223.4 1388.62 227.124L1213.85 300.301L1149.3 267.608C1135.26 260.513 1136.69 250.281 1156.04 246.206L1439.49 188.084C1452.6 185.522 1462.16 194.691 1455 212.86L1455 212.849Z" fill="url(#paint2_linear)" fill-opacity="0.5"/>
<path d="M83.1347 417.5C18.7003 417.5 -33.7305 469.983 -33.7305 534.506C-33.7305 599.03 18.7003 651.513 83.1347 651.513C147.569 651.513 200 599.03 200 534.506C200 469.983 147.569 417.5 83.1347 417.5ZM83.1347 643.719C22.993 643.719 -25.9322 594.724 -25.9322 534.506C-25.9322 474.288 22.993 425.294 83.1347 425.294C143.276 425.294 192.201 474.288 192.201 534.506C192.201 594.724 143.276 643.719 83.1347 643.719Z" fill="url(#paint3_linear)" fill-opacity="0.5"/>
<path d="M150.094 534.087C150.094 533.758 150.094 533.384 150.079 532.95C150.064 531.738 150.035 530.376 150.005 528.924C149.885 524.749 149.676 520.589 149.347 516.668C148.899 511.265 148.241 506.761 147.344 503.378C146.398 499.849 144.543 496.63 141.965 494.043C139.386 491.456 136.175 489.592 132.652 488.638C128.422 487.5 120.142 486.797 108.484 486.363C102.939 486.153 97.0049 486.019 91.0712 485.944C88.9936 485.914 87.0655 485.899 85.3318 485.884H80.9375C79.2038 485.899 77.2757 485.914 75.1981 485.944C69.2644 486.019 63.3307 486.153 57.7856 486.363C46.1275 486.812 37.8323 487.515 33.6174 488.638C30.093 489.59 26.8806 491.453 24.302 494.04C21.7233 496.627 19.8691 499.848 18.9251 503.378C18.0134 506.761 17.3707 511.265 16.9223 516.668C16.5935 520.589 16.3842 524.749 16.2647 528.924C16.2198 530.376 16.2049 531.738 16.1899 532.95C16.1899 533.384 16.175 533.758 16.175 534.087V534.925C16.175 535.255 16.175 535.629 16.1899 536.063C16.2049 537.275 16.2348 538.637 16.2647 540.088C16.3842 544.264 16.5935 548.424 16.9223 552.345C17.3707 557.747 18.0283 562.252 18.9251 565.634C20.8382 572.803 26.4581 578.46 33.6174 580.375C37.8323 581.512 46.1275 582.216 57.7856 582.65C63.3307 582.859 69.2644 582.994 75.1981 583.069C77.2757 583.099 79.2038 583.114 80.9375 583.129H85.3318C87.0655 583.114 88.9936 583.099 91.0712 583.069C97.0049 582.994 102.939 582.859 108.484 582.65C120.142 582.201 128.437 581.497 132.652 580.375C139.811 578.46 145.431 572.818 147.344 565.634C148.256 562.252 148.899 557.747 149.347 552.345C149.676 548.424 149.885 544.264 150.005 540.088C150.049 538.637 150.064 537.275 150.079 536.063C150.079 535.629 150.094 535.255 150.094 534.925V534.087ZM141.965 534.865C141.965 535.18 141.965 535.524 141.95 535.928C141.935 537.095 141.905 538.382 141.875 539.774C141.77 543.755 141.561 547.736 141.247 551.432C140.844 556.251 140.276 560.202 139.573 562.851C138.646 566.308 136.398 572.085 129.707 573.871C126.569 574.709 118.662 575.383 107.916 575.787C102.475 575.996 96.6163 576.131 90.7722 576.206C88.7246 576.236 86.8264 576.251 85.1225 576.251H80.8479L75.1981 576.206C69.3541 576.131 63.5101 575.996 58.0547 575.787C47.3082 575.368 39.3867 574.709 36.2629 573.871C29.0929 571.948 27.6201 566.308 26.6934 562.851C25.9909 560.202 25.423 556.251 25.0194 551.432C24.7055 547.736 24.5112 543.755 24.3917 539.774C24.3468 538.382 24.3319 537.08 24.3169 535.928C24.3169 535.524 24.302 535.165 24.302 534.865V534.147C24.302 533.833 24.302 533.489 24.3169 533.085C24.3319 531.917 24.3618 530.63 24.3917 529.238C24.4963 525.258 24.7055 521.277 25.0194 517.581C25.423 512.762 25.9909 508.811 26.6934 506.162C27.6201 502.705 31.0556 497.346 36.2629 495.956C39.4016 495.118 47.3082 494.444 58.0547 494.04C63.4951 493.831 69.3541 493.696 75.1981 493.621C77.2458 493.591 79.144 493.576 80.8479 493.576H85.1225L90.7722 493.621C96.6163 493.696 102.46 493.831 107.916 494.04C118.662 494.459 126.584 495.118 129.707 495.956C133.145 496.884 137.829 499.583 139.573 506.162C140.276 508.811 140.844 512.762 141.247 517.581C141.561 521.277 141.755 525.258 141.875 529.238C141.92 530.63 141.935 531.932 141.95 533.085C141.95 533.489 141.965 533.848 141.965 534.147V534.865ZM69.8324 551.432L101.974 534.147L69.8324 517.581V551.432Z" fill="url(#paint4_linear)" fill-opacity="0.5"/>
<path d="M348.696 203.5C306.901 203.5 272.892 237.543 272.892 279.396C272.892 321.249 306.901 355.292 348.696 355.292C390.491 355.292 424.5 321.249 424.5 279.396C424.5 237.543 390.491 203.5 348.696 203.5ZM348.696 350.236C309.685 350.236 277.95 318.456 277.95 279.396C277.95 240.336 309.685 208.555 348.696 208.555C387.707 208.555 419.442 240.336 419.442 279.396C419.442 318.456 387.707 350.236 348.696 350.236Z" fill="url(#paint5_linear)" fill-opacity="0.5"/>
<path d="M390.269 255.946C390.793 254.975 391.225 253.956 391.559 252.903C391.714 252.414 391.717 251.891 391.568 251.401C391.419 250.91 391.126 250.477 390.726 250.158C390.326 249.838 389.838 249.648 389.328 249.611C388.818 249.575 388.308 249.694 387.867 249.954C385.445 251.395 382.823 252.468 380.086 253.139C376.764 250.137 372.449 248.473 367.974 248.468C365.543 248.469 363.137 248.963 360.901 249.918C358.665 250.874 356.644 252.271 354.961 254.027C353.277 255.783 351.965 257.862 351.103 260.138C350.241 262.414 349.847 264.841 349.944 267.273C339.312 265.933 329.603 260.547 322.832 252.231C322.573 251.916 322.241 251.668 321.866 251.509C321.49 251.349 321.082 251.283 320.675 251.316C320.269 251.348 319.876 251.478 319.531 251.695C319.185 251.912 318.897 252.21 318.691 252.562C317.141 255.227 316.298 258.244 316.243 261.328C316.188 264.411 316.924 267.457 318.379 270.175C318.022 270.235 317.679 270.36 317.367 270.544C316.985 270.788 316.67 271.125 316.452 271.523C316.234 271.921 316.12 272.367 316.119 272.821C316.119 278.194 318.507 283.126 322.355 286.477L322.189 286.643C321.899 286.972 321.699 287.371 321.609 287.801C321.52 288.231 321.544 288.677 321.679 289.095C322.481 291.601 323.821 293.902 325.604 295.835C327.388 297.769 329.572 299.289 332.003 300.289C327.009 302.728 321.42 303.68 315.902 303.03C315.335 302.972 314.764 303.104 314.28 303.406C313.796 303.707 313.425 304.161 313.226 304.696C313.035 305.235 313.031 305.823 313.216 306.364C313.4 306.905 313.762 307.368 314.242 307.678C321.745 312.499 330.473 315.061 339.388 315.057C368.603 315.057 386.066 291.296 386.066 268.324L386.061 267.548C388.893 265.335 391.352 262.682 393.346 259.691C393.648 259.238 393.797 258.701 393.77 258.157C393.743 257.614 393.542 257.094 393.197 256.674C392.851 256.254 392.38 255.956 391.853 255.825C391.326 255.694 390.77 255.737 390.269 255.946ZM382.02 264.254C381.676 264.501 381.401 264.83 381.217 265.211C381.034 265.592 380.949 266.013 380.97 266.436C380.998 267.06 381.013 267.695 381.013 268.32C381.013 288.806 365.445 309.997 339.392 309.997C334.746 310 330.132 309.219 325.744 307.687C330.999 306.679 335.936 304.423 340.139 301.108C340.548 300.785 340.848 300.343 340.997 299.843C341.146 299.343 341.137 298.81 340.971 298.315C340.806 297.82 340.492 297.389 340.072 297.08C339.652 296.77 339.147 296.599 338.627 296.588C336.588 296.549 334.587 296.031 332.786 295.075C330.984 294.12 329.432 292.754 328.255 291.087C329.451 291.007 330.623 290.808 331.762 290.5C332.314 290.353 332.799 290.022 333.138 289.563C333.478 289.103 333.652 288.542 333.633 287.971C333.613 287.4 333.4 286.852 333.03 286.418C332.659 285.983 332.152 285.687 331.592 285.578C329.29 285.109 327.158 284.022 325.426 282.434C323.693 280.845 322.424 278.815 321.754 276.56C323.012 276.878 324.302 277.062 325.593 277.105C326.704 277.1 327.735 276.418 328.08 275.349C328.425 274.279 328.018 273.1 327.077 272.476C324.853 270.992 323.14 268.856 322.173 266.361C321.206 263.866 321.032 261.133 321.674 258.536C329.886 266.972 340.974 271.996 352.724 272.603C353.556 272.608 354.284 272.31 354.79 271.699C355.295 271.089 355.489 270.279 355.31 269.503C354.663 266.715 354.952 263.791 356.132 261.184C357.313 258.578 359.318 256.433 361.838 255.082C364.358 253.732 367.253 253.25 370.074 253.713C372.895 254.175 375.485 255.556 377.443 257.641C377.737 257.955 378.105 258.188 378.514 258.32C378.922 258.451 379.358 258.477 379.779 258.394C380.559 258.237 381.329 258.057 382.09 257.849C381.747 258.106 381.391 258.345 381.022 258.564C380.532 258.865 380.159 259.324 379.964 259.865C379.769 260.407 379.764 260.999 379.95 261.543C380.136 262.088 380.502 262.553 380.987 262.861C381.473 263.17 382.048 263.304 382.62 263.241L383.48 263.132C383.006 263.522 382.519 263.897 382.02 264.254Z" fill="url(#paint6_linear)" fill-opacity="0.5"/>
<path d="M418.561 468.234C380.041 468.234 348.696 499.61 348.696 538.184C348.696 576.758 380.041 608.134 418.561 608.134C457.082 608.134 488.427 576.758 488.427 538.184C488.427 499.61 457.082 468.234 418.561 468.234ZM418.561 603.474C382.607 603.474 353.358 574.184 353.358 538.184C353.358 502.184 382.607 472.893 418.561 472.893C454.516 472.893 483.765 502.184 483.765 538.184C483.765 574.184 454.516 603.474 418.561 603.474Z" fill="url(#paint7_linear)" fill-opacity="0.5"/>
<path d="M433.811 498.921H422.186C407.381 498.772 405.49 507.947 405.49 517.876V525.096H398.955C398.659 525.057 398.359 525.086 398.076 525.181C397.794 525.277 397.538 525.437 397.327 525.648C397.116 525.859 396.957 526.115 396.861 526.398C396.766 526.681 396.737 526.982 396.776 527.277V540.365C396.737 540.661 396.766 540.962 396.861 541.244C396.957 541.527 397.116 541.784 397.327 541.995C397.538 542.206 397.794 542.365 398.076 542.461C398.359 542.557 398.659 542.586 398.955 542.546H405.49V575.266C405.454 575.562 405.486 575.863 405.583 576.145C405.681 576.427 405.841 576.683 406.053 576.894C406.264 577.104 406.521 577.263 406.803 577.359C407.086 577.455 407.386 577.485 407.682 577.447H420.993C422.278 577.595 423.319 576.553 422.91 575.266L422.918 542.546H433.811C434.106 542.586 434.407 542.557 434.689 542.461C434.971 542.365 435.228 542.206 435.439 541.995C435.649 541.784 435.809 541.527 435.904 541.244C436 540.962 436.029 540.661 435.99 540.365V527.277C436.029 526.982 436 526.681 435.904 526.398C435.809 526.115 435.649 525.859 435.439 525.648C435.228 525.437 434.971 525.277 434.689 525.181C434.407 525.086 434.106 525.057 433.811 525.096H422.905L422.918 518.552C423.341 515.764 423.341 516.218 425.925 516.371H433.719C434.325 516.236 434.97 516.31 435.423 515.869C435.876 515.429 436.138 514.827 435.985 514.19V501.102C436.025 500.806 435.997 500.505 435.902 500.223C435.807 499.94 435.648 499.683 435.438 499.472C435.227 499.261 434.971 499.101 434.689 499.006C434.407 498.91 434.106 498.881 433.811 498.921ZM431.48 511.764L426.016 511.555C419.25 511.555 418.683 515.232 418.683 518.997L418.666 527.269C418.665 527.575 418.725 527.878 418.842 528.161C418.958 528.445 419.13 528.702 419.346 528.919C419.562 529.136 419.819 529.308 420.101 529.425C420.384 529.542 420.687 529.603 420.993 529.603H431.632V538.031H421.001C420.384 538.031 419.792 538.276 419.354 538.713C418.917 539.15 418.671 539.743 418.67 540.361L418.666 573.085H409.847V540.365C409.847 539.078 408.971 538.035 407.682 538.035H401.133V529.607H407.682C407.987 529.607 408.29 529.548 408.573 529.431C408.855 529.314 409.112 529.143 409.329 528.926C409.764 528.486 409.843 527.892 409.843 527.273V517.872C409.843 508.091 411.817 503.431 422.182 503.431H431.476L431.48 511.764Z" fill="url(#paint8_linear)" fill-opacity="0.5"/>
<path d="M1006.33 487.394C947.785 487.394 900.151 535.076 900.151 593.697C900.151 652.318 947.785 700 1006.33 700C1064.87 700 1112.5 652.318 1112.5 593.697C1112.5 535.076 1064.87 487.394 1006.33 487.394ZM1006.33 692.919C951.685 692.919 907.235 648.406 907.235 593.697C907.235 538.987 951.685 494.474 1006.33 494.474C1060.97 494.474 1105.42 538.987 1105.42 593.697C1105.42 648.406 1060.97 692.919 1006.33 692.919Z" fill="url(#paint9_linear)" fill-opacity="0.5"/>
<path d="M939.879 565.55C939.879 561.215 942.341 558.877 947.265 558.537L966.237 558.665C967.511 558.665 968.36 559.302 968.784 560.577C970.737 566.952 972.923 572.456 975.342 577.088C977.761 581.72 980.924 587.054 984.828 593.089C985.168 593.854 985.72 594.236 986.484 594.236C987.078 594.236 987.545 593.939 987.885 593.344L988.266 591.941L988.394 569.885C988.394 568.355 988.033 567.334 987.311 566.824C986.59 566.315 985.253 565.932 983.3 565.677C981.772 565.422 981.008 564.487 981.008 562.872C981.008 562.532 981.051 562.277 981.136 562.107C982.918 556.582 988.012 553.82 996.416 553.82L1003.55 553.692C1006.77 553.692 1009.45 554.5 1011.57 556.115C1013.69 557.73 1014.75 560.28 1014.75 563.765V592.706C1015.35 593.131 1015.9 593.344 1016.41 593.344C1017.68 593.344 1018.78 592.579 1019.72 591.049C1029.06 577.959 1034.11 569.204 1034.87 564.785C1034.87 564.7 1034.96 564.487 1035.13 564.147C1035.72 562.872 1036.7 561.767 1038.05 560.832C1039.41 559.897 1040.6 559.26 1041.62 558.92C1041.96 558.75 1042.34 558.665 1042.77 558.665H1062.5L1063.78 558.792C1065.47 558.792 1066.79 559.6 1067.72 561.215C1068.06 561.725 1068.3 562.277 1068.42 562.872C1068.55 563.467 1068.64 564.062 1068.68 564.657C1068.72 565.252 1068.74 565.592 1068.74 565.677V566.57C1068.15 570.054 1066.64 573.773 1064.22 577.726C1061.8 581.678 1058.73 585.949 1054.99 590.539C1051.26 595.129 1048.92 598.146 1047.99 599.591C1047.22 600.611 1046.84 601.546 1046.84 602.396C1046.84 603.076 1047.18 603.841 1047.86 604.691L1066.45 628.151C1067.47 629.511 1067.98 630.998 1067.98 632.613C1067.98 634.568 1067.21 636.183 1065.69 637.458C1064.16 638.733 1062.33 639.455 1060.21 639.625L1058.05 639.753H1038.69C1038.61 639.753 1038.44 639.774 1038.18 639.817C1037.93 639.859 1037.76 639.88 1037.67 639.88C1035.81 639.88 1034.06 639.073 1032.45 637.458C1031.86 636.778 1027.87 631.763 1020.48 622.413C1020.06 621.818 1019.46 621.266 1018.7 620.756C1018.36 622.116 1017.91 624.071 1017.36 626.621C1016.81 629.171 1016.41 630.998 1016.15 632.103L1015.77 634.271C1014.92 637.245 1013.14 639.03 1010.42 639.625L1008.64 639.753H996.161C989.115 639.753 982.091 636.523 975.087 630.063C968.084 623.603 961.781 615.252 956.178 605.01C950.575 594.768 945.354 582.847 940.516 569.247C940.091 568.142 939.879 566.91 939.879 565.55ZM1016.41 598.571C1014.62 598.571 1013.01 598.083 1011.57 597.105C1010.13 596.128 1009.4 594.789 1009.4 593.089V563.765C1009.4 562.065 1008.98 560.853 1008.13 560.131C1007.28 559.408 1005.8 559.047 1003.67 559.047L996.416 559.302C992.766 559.302 990.007 559.94 988.139 561.215C991.874 563 993.742 565.89 993.742 569.885V592.324C993.572 594.449 992.723 596.213 991.195 597.615C989.667 599.018 987.969 599.719 986.102 599.719C983.555 599.719 981.603 598.486 980.244 596.021C973.623 585.992 968.699 576.472 965.474 567.462L964.328 564.147L947.392 564.02C946.288 564.02 945.673 564.083 945.546 564.211C945.418 564.338 945.354 564.7 945.354 565.295C945.354 566.06 945.439 566.867 945.609 567.717L948.283 574.857C955.414 593.301 963.16 607.836 971.522 618.461C979.884 629.086 988.097 634.398 996.161 634.398H1008.89C1009.4 634.398 1009.79 634.249 1010.04 633.952C1010.3 633.654 1010.51 633.081 1010.68 632.231L1010.93 630.956L1013.35 619.736C1014.03 618.206 1014.62 617.186 1015.13 616.676C1016.07 615.741 1017.17 615.273 1018.44 615.273C1020.48 615.273 1022.56 616.506 1024.68 618.971L1035.51 632.741C1036.19 633.846 1036.91 634.398 1037.67 634.398H1058.68C1061.23 634.398 1062.5 633.761 1062.5 632.486C1062.5 632.061 1062.38 631.636 1062.12 631.211L1043.66 608.134C1042.21 606.349 1041.49 604.436 1041.49 602.396C1041.49 600.356 1042.17 598.401 1043.53 596.531C1044.63 594.831 1046.78 592.005 1049.96 588.053C1053.14 584.1 1055.92 580.403 1058.3 576.961C1060.68 573.518 1062.25 570.394 1063.01 567.589L1063.39 565.932C1063.31 565.762 1063.27 565.486 1063.27 565.103C1063.27 564.721 1063.22 564.402 1063.14 564.147H1043.15C1041.87 564.657 1040.86 565.422 1040.09 566.442L1039.33 568.864C1037.21 574.729 1031.65 583.782 1022.65 596.021C1020.86 597.721 1018.78 598.571 1016.41 598.571Z" fill="url(#paint10_linear)" fill-opacity="0.5"/>
<path d="M96.9018 204.203C72.4518 204.203 52.5565 224.118 52.5565 248.602C52.5565 273.085 72.4518 293 96.9018 293C121.352 293 141.247 273.085 141.247 248.602C141.247 224.118 121.352 204.203 96.9018 204.203ZM96.9018 290.043C74.0807 290.043 55.5156 271.452 55.5156 248.602C55.5156 225.751 74.0807 207.16 96.9018 207.16C119.723 207.16 138.288 225.751 138.288 248.602C138.288 271.452 119.723 290.043 96.9018 290.043Z" fill="url(#paint11_linear)" fill-opacity="0.5"/>
<path d="M119.438 227.362C118.823 227.406 116.89 228.223 116.322 228.459H116.314C115.769 228.674 113.174 229.755 109.229 231.395L95.0918 237.294C84.9479 241.526 75.4759 246.165 75.4759 246.165L75.5947 246.12C75.5947 246.12 74.827 246.254 74.1088 246.742C73.6651 247.022 72.6197 247.299 72.3229 247.729C72.1749 247.944 71.174 248.605 71.2793 249.415C71.4516 250.786 71.3136 250.38 71.957 250.833C72.6081 251.292 74.8808 252.242 74.8808 252.242H74.8961L85.897 255.608C86.3164 256.942 87.6879 265.034 88.0336 266.981C88.3792 268.928 88.0245 268.246 88.4439 268.766C88.6469 269.031 88.8843 269.253 89.1697 269.432C89.318 269.517 89.4762 269.585 89.6408 269.633L89.545 269.61C89.5738 269.617 89.5967 269.64 89.6178 269.648C89.6944 269.669 89.7461 269.676 89.8438 269.691C91.3241 270.135 92.5037 269.309 92.5037 269.309L92.5707 269.256L98.4971 263.736L108.516 271.351L108.726 271.44C110.655 272.279 112.75 272.432 113.053 271.783C113.355 271.134 113.85 269.256 113.85 269.256L113.917 269.085L121.825 231.395C122.028 230.499 122.08 229.661 121.856 228.847C121.624 228.023 121.401 227.785 121.401 227.785C120.787 227.415 120.155 227.326 119.438 227.362ZM119.438 230.089C119.483 230.172 119.651 230.288 119.597 230.517V230.538L111.344 269.7C111.313 269.751 111.261 269.863 111.12 269.975C110.97 270.093 110.851 270.167 110.229 269.922L98.4971 260.961L90.8865 268.183V257.107L111.372 239.746C112.134 239.044 111.879 238.896 111.879 238.896C111.933 238.034 110.728 238.643 110.728 238.643L85.3631 252.991L85.3555 252.953L73.9894 249.452V249.444L73.9606 249.438C73.9802 249.432 73.9994 249.424 74.0181 249.415L74.0794 249.385L74.1387 249.364L95.9835 239.573L110.115 233.671C110.115 233.671 118.428 230.154 118.592 230.089C118.749 230.029 119.279 229.8 119.438 230.089Z" fill="url(#paint12_linear)" fill-opacity="0.5"/>
<path d="M662.378 617.61C629.229 617.61 602.255 644.61 602.255 677.805C602.255 711 629.229 738 662.378 738C695.527 738 722.5 711 722.5 677.805C722.5 644.61 695.527 617.61 662.378 617.61ZM662.378 733.99C631.437 733.99 606.267 708.785 606.267 677.805C606.267 646.825 631.437 621.619 662.378 621.619C693.318 621.619 718.488 646.825 718.488 677.805C718.488 708.785 693.318 733.99 662.378 733.99Z" fill="url(#paint13_linear)" fill-opacity="0.5"/>
<path d="M692.931 649.009C692.098 649.069 689.478 650.177 688.707 650.497H688.697C687.957 650.787 684.439 652.254 679.09 654.476L659.924 662.475C646.171 668.212 633.329 674.502 633.329 674.502L633.49 674.44C633.49 674.44 632.449 674.623 631.475 675.284C630.874 675.663 629.457 676.039 629.054 676.622C628.854 676.913 627.497 677.81 627.639 678.909C627.873 680.766 627.686 680.216 628.558 680.83C629.441 681.453 632.522 682.741 632.522 682.741H632.543L647.458 687.304C648.026 689.112 649.886 700.084 650.354 702.723C650.823 705.363 650.342 704.438 650.911 705.143C651.186 705.503 651.508 705.804 651.895 706.046C652.096 706.162 652.31 706.253 652.533 706.318L652.404 706.288C652.442 706.298 652.474 706.329 652.502 706.339C652.606 706.367 652.676 706.378 652.809 706.398C654.816 707 656.415 705.88 656.415 705.88L656.506 705.808L664.54 698.324L678.124 708.648L678.409 708.769C681.024 709.906 683.865 710.115 684.275 709.235C684.685 708.355 685.356 705.808 685.356 705.808L685.447 705.576L696.168 654.477C696.443 653.262 696.513 652.125 696.209 651.022C695.896 649.905 695.593 649.582 695.593 649.582C694.76 649.081 693.904 648.96 692.931 649.009ZM692.931 652.707C692.993 652.819 693.22 652.976 693.148 653.287V653.315L681.958 706.41C681.916 706.479 681.846 706.631 681.654 706.783C681.451 706.942 681.29 707.043 680.446 706.711L664.54 694.562L654.222 704.353V689.336L681.996 665.799C683.029 664.847 682.684 664.646 682.684 664.646C682.757 663.478 681.123 664.304 681.123 664.304L646.734 683.756L646.723 683.705L631.314 678.957V678.947L631.275 678.939C631.301 678.931 631.327 678.92 631.353 678.909L631.436 678.867L631.516 678.839L661.133 665.564L680.291 657.563C680.291 657.563 691.562 652.794 691.785 652.707C691.998 652.624 692.716 652.314 692.931 652.707Z" fill="url(#paint14_linear)" fill-opacity="0.5"/>
<defs>
<filter id="filter0_f" x="-64.497" y="453.201" width="1564.64" height="534.673" filterUnits="userSpaceOnUse" color-interpolation-filters="sRGB">
<feFlood flood-opacity="0" result="BackgroundImageFix"/>
<feBlend mode="normal" in="SourceGraphic" in2="BackgroundImageFix" result="shape"/>
<feGaussianBlur stdDeviation="31.1868" result="effect1_foregroundBlur"/>
</filter>
<linearGradient id="paint0_linear" x1="717.823" y1="-279.418" x2="717.823" y2="1143.99" gradientUnits="userSpaceOnUse">
<stop stop-color="#00BBF0"/>
<stop offset="1" stop-color="#00C7FF" stop-opacity="0"/>
</linearGradient>
<linearGradient id="paint1_linear" x1="719.946" y1="-102.174" x2="719.946" y2="818.756" gradientUnits="userSpaceOnUse">
<stop offset="0.104167" stop-color="#00204A"/>
<stop offset="1" stop-color="#00367D"/>
</linearGradient>
<linearGradient id="paint2_linear" x1="968.829" y1="798.622" x2="758.867" y2="-156.088" gradientUnits="userSpaceOnUse">
<stop stop-color="#00204A"/>
<stop offset="0.887129" stop-color="#0056C7"/>
</linearGradient>
<linearGradient id="paint3_linear" x1="968.829" y1="798.622" x2="758.867" y2="-156.088" gradientUnits="userSpaceOnUse">
<stop stop-color="#00204A"/>
<stop offset="0.887129" stop-color="#0056C7"/>
</linearGradient>
<linearGradient id="paint4_linear" x1="968.829" y1="798.622" x2="758.867" y2="-156.088" gradientUnits="userSpaceOnUse">
<stop stop-color="#00204A"/>
<stop offset="0.887129" stop-color="#0056C7"/>
</linearGradient>
<linearGradient id="paint5_linear" x1="968.829" y1="798.622" x2="758.867" y2="-156.088" gradientUnits="userSpaceOnUse">
<stop stop-color="#00204A"/>
<stop offset="0.887129" stop-color="#0056C7"/>
</linearGradient>
<linearGradient id="paint6_linear" x1="968.829" y1="798.622" x2="758.867" y2="-156.088" gradientUnits="userSpaceOnUse">
<stop stop-color="#00204A"/>
<stop offset="0.887129" stop-color="#0056C7"/>
</linearGradient>
<linearGradient id="paint7_linear" x1="968.829" y1="798.622" x2="758.867" y2="-156.088" gradientUnits="userSpaceOnUse">
<stop stop-color="#00204A"/>
<stop offset="0.887129" stop-color="#0056C7"/>
</linearGradient>
<linearGradient id="paint8_linear" x1="968.829" y1="798.622" x2="758.867" y2="-156.088" gradientUnits="userSpaceOnUse">
<stop stop-color="#00204A"/>
<stop offset="0.887129" stop-color="#0056C7"/>
</linearGradient>
<linearGradient id="paint9_linear" x1="968.829" y1="798.622" x2="758.867" y2="-156.088" gradientUnits="userSpaceOnUse">
<stop stop-color="#00204A"/>
<stop offset="0.887129" stop-color="#0056C7"/>
</linearGradient>
<linearGradient id="paint10_linear" x1="968.829" y1="798.622" x2="758.867" y2="-156.088" gradientUnits="userSpaceOnUse">
<stop stop-color="#00204A"/>
<stop offset="0.887129" stop-color="#0056C7"/>
</linearGradient>
<linearGradient id="paint11_linear" x1="968.829" y1="798.622" x2="758.867" y2="-156.088" gradientUnits="userSpaceOnUse">
<stop stop-color="#00204A"/>
<stop offset="0.887129" stop-color="#0056C7"/>
</linearGradient>
<linearGradient id="paint12_linear" x1="968.829" y1="798.622" x2="758.867" y2="-156.088" gradientUnits="userSpaceOnUse">
<stop stop-color="#00204A"/>
<stop offset="0.887129" stop-color="#0056C7"/>
</linearGradient>
<linearGradient id="paint13_linear" x1="968.829" y1="798.622" x2="758.867" y2="-156.088" gradientUnits="userSpaceOnUse">
<stop stop-color="#00204A"/>
<stop offset="0.887129" stop-color="#0056C7"/>
</linearGradient>
<linearGradient id="paint14_linear" x1="968.829" y1="798.622" x2="758.867" y2="-156.088" gradientUnits="userSpaceOnUse">
<stop stop-color="#00204A"/>
<stop offset="0.887129" stop-color="#0056C7"/>
</linearGradient>
</defs>
</svg>
